# xmcd CD database file
#
# Track frame offsets:
#	150
#	22205
#	51667
#	81876
#	106791
#	137320
#	167473
#	191893
#	215619
#	232509
#
# Disc length: 3347 seconds
#
# Revision: 0
# Processed by: cddbd v1.5.2PL0 Copyright (c) Steve Scherf et al.
# Submitted via: CDex 1.70beta2
#
DISCID=800d110a
DTITLE=Brian Smith and Friends - Taupo
DYEAR=2007
DGENRE=Jazz
TTITLE0=Kids At Play
TTITLE1=It Ain't Necessarily So
TTITLE2=Moon and Sand
TTITLE3=Perhaps
TTITLE4=Madame Butterfly
TTITLE5=On A Misty Night
TTITLE6=Short Shift
TTITLE7=Big Kids At Play
TTITLE8=Taupo
TTITLE9=Soon
EXTD=YEAR: 2007
EXTT0=
EXTT1=
EXTT2=
EXTT3=
EXTT4=
EXTT5=
EXTT6=
EXTT7=
EXTT8=
EXTT9=
PLAYORDER=
